<?xml version="1.0" encoding="utf-8"?>
<!-- Generator: Adobe Illustrator 27.0.1, SVG Export Plug-In . SVG Version: 6.00 Build 0)  -->
<svg version="1.1" id="Layer_1" xmlns="http://www.w3.org/2000/svg" xmlns:xlink="http://www.w3.org/1999/xlink" x="0px" y="0px"
	 viewBox="0 0 700 700" style="enable-background:new 0 0 700 700;" xml:space="preserve">
<style type="text/css">
	.st0{fill:#02103D;}
</style>
<path class="st0" d="M584.3,100.3c-30.6-30.7-73.8-45.4-116.8-39.8c-43,5.6-80.9,30.9-102.7,68.4s-24.8,83-8.3,123.1
	c16.5,40.1,50.8,70.2,92.6,81.5c41.9,11.3,86.6,2.5,121-23.9c34.4-26.3,54.7-67.2,54.8-110.6C625.1,162,610.5,126.5,584.3,100.3
	L584.3,100.3z M532.3,362.3c-6.2,0-12.1,2.5-16.5,6.8c-4.4,4.4-6.8,10.3-6.8,16.5v9.1L474.4,360c-12.4-11.7-28.8-18.2-45.8-18.2
	c-17,0-33.4,6.5-45.9,18.2l-16.3,16.6l-57.9-58.1c-12.4-11.7-28.8-18.2-45.9-18.2c-17,0-33.4,6.5-45.8,18.2l-34.5,34.8V222.3
	c0-6.2,2.5-12.1,6.8-16.5c4.4-4.4,10.3-6.8,16.5-6.8h93.3c8.3,0,16-4.4,20.2-11.7s4.2-16.1,0-23.3c-4.2-7.2-11.9-11.7-20.2-11.7
	h-93.3c-18.6,0-36.4,7.4-49.5,20.5c-13.1,13.1-20.5,30.9-20.5,49.5v280c0,18.6,7.4,36.4,20.5,49.5c13.1,13.1,30.9,20.5,49.5,20.5
	h280c7.6-0.1,15-1.5,22.2-4h2.1c12-4.3,22.5-11.7,30.6-21.5c8.1-9.8,13.3-21.7,15.1-34.2c0.1-1.7,0.1-3.4,0-5.1V385.7
	c0-6.2-2.5-12.1-6.8-16.5S538.4,362.3,532.3,362.3L532.3,362.3z M205.6,525.7c-6.2,0-12.1-2.5-16.5-6.8s-6.8-10.3-6.8-16.5V419
	l67.7-67.4c3.4-3.3,8-5.1,12.7-5.1c4.7,0,9.3,1.8,12.7,5.1l74.4,74.2l99.9,99.9L205.6,525.7z M508.9,502.3L508.9,502.3
	c-0.1,4.5-1.6,8.9-4.2,12.6L399.3,409l16.6-16.3c3.4-3.3,8-5.1,12.7-5.1c4.7,0,9.3,1.8,12.7,5.1l67.7,67.9L508.9,502.3z
	 M532.3,175.5h-23.3v-23.3c0-8.3-4.4-16-11.7-20.2s-16.1-4.2-23.3,0s-11.7,11.9-11.7,20.2v23.3h-23.3c-8.3,0-16,4.4-20.2,11.7
	c-4.2,7.2-4.2,16.1,0,23.3c4.2,7.2,11.9,11.7,20.2,11.7h23.3v23.3c0,8.3,4.4,16,11.7,20.2s16.1,4.2,23.3,0
	c7.2-4.2,11.7-11.9,11.7-20.2v-23.3h23.3c8.3,0,16-4.4,20.2-11.7s4.2-16.1,0-23.3C548.3,179.9,540.6,175.5,532.3,175.5z
	 M590.9,198.8c0,58.2-47.2,105.3-105.3,105.3S380.3,257,380.3,198.8S427.4,93.5,485.6,93.5S590.9,140.6,590.9,198.8z"/>
</svg>
