<?xml version="1.0" encoding="utf-8"?>
<!-- Generator: Adobe Illustrator 27.0.1, SVG Export Plug-In . SVG Version: 6.00 Build 0)  -->
<svg version="1.1" id="Layer_1" xmlns="http://www.w3.org/2000/svg" xmlns:xlink="http://www.w3.org/1999/xlink" x="0px" y="0px"
	 viewBox="0 0 448 512" style="enable-background:new 0 0 448 512;" xml:space="preserve">
<style type="text/css">
	.st0{fill:#EB5E4E;}
</style>
<path class="st0" d="M424,80h-69.8l-36.7-55.1C307.1,9.4,289.6,0,270.9,0h-93.8c-18.7,0-36.2,9.4-46.6,24.9L93.8,80H24
	C10.8,80,0,90.8,0,104c0,13.3,10.8,24,24,24h8v304c0,44.2,35.8,80,80,80h224c44.2,0,80-35.8,80-80V128h8c13.3,0,24-10.7,24-24
	C448,90.8,437.3,80,424,80z M170.5,51.6c0.6-2.3,4-3.6,6.6-3.6h93.8c2.6,0,5.1,1.4,6.6,3.6l19,28.4h-145L170.5,51.6z M160,400
	c0,8.8-7.2,16-16,16s-16-7.2-16-16V192c0-8.8,7.2-16,16-16s16,7.2,16,16V400z M240,400c0,8.8-7.2,16-16,16s-16-7.2-16-16V192
	c0-8.8,7.2-16,16-16s16,7.2,16,16V400z M320,400c0,8.8-7.2,16-16,16s-16-7.2-16-16V192c0-8.8,7.2-16,16-16s16,7.2,16,16V400z"/>
</svg>
