<?xml version="1.0" encoding="utf-8"?>
<!-- Generator: Adobe Illustrator 27.0.1, SVG Export Plug-In . SVG Version: 6.00 Build 0)  -->
<svg version="1.1" id="Layer_1" xmlns="http://www.w3.org/2000/svg" xmlns:xlink="http://www.w3.org/1999/xlink" x="0px" y="0px"
	 viewBox="0 0 576 512" style="enable-background:new 0 0 576 512;" xml:space="preserve">
<style type="text/css">
	.st0{opacity:0.75;fill:#02103D;}
</style>
<path class="st0" d="M128,192c-17.7,0-32-14.3-32-32s14.3-32,32-32s32,14.3,32,32S145.7,192,128,192z M200,160c0-13.3,10.7-24,24-24
	h224c13.3,0,24,10.7,24,24s-10.7,24-24,24H224C210.7,184,200,173.3,200,160z M200,256c0-13.3,10.7-24,24-24h224
	c13.3,0,24,10.7,24,24c0,13.3-10.7,24-24,24H224C210.7,280,200,269.3,200,256z M200,352c0-13.3,10.7-24,24-24h224
	c13.3,0,24,10.7,24,24s-10.7,24-24,24H224C210.7,376,200,365.3,200,352z M128,224c17.7,0,32,14.3,32,32s-14.3,32-32,32
	s-32-14.3-32-32S110.3,224,128,224z M128,384c-17.7,0-32-14.3-32-32s14.3-32,32-32s32,14.3,32,32S145.7,384,128,384z M0,96
	c0-35.3,28.6-64,64-64h448c35.3,0,64,28.7,64,64v320c0,35.3-28.7,64-64,64H64c-35.3,0-64-28.7-64-64V96z M48,96v320
	c0,8.8,7.2,16,16,16h448c8.8,0,16-7.2,16-16V96c0-8.8-7.2-16-16-16H64C55.2,80,48,87.2,48,96z"/>
</svg>
