<?xml version="1.0" encoding="UTF-8"?><svg id="Layer_2" xmlns="http://www.w3.org/2000/svg" viewBox="0 0 177.75 48.79"><defs><style>.cls-1{fill:#fff;}.cls-2{fill:#49f2d6;}</style></defs><g id="Layer_1-2"><g><path class="cls-1" d="M92.76,28.8c0-3.71,.74-7.07,2.23-10.07,1.49-3,3.52-5.38,6.1-7.14,2.58-1.76,5.55-2.64,8.92-2.64,2.73,0,5.2,.64,7.43,1.93,2.23,1.29,3.91,2.99,5.06,5.12l-.21-13.24c0-1.53,1.24-2.77,2.77-2.77h5.37c1.53,0,1.8,1.24,1.8,2.77l.21,34.03c0,1.19,.19,2.03,.56,2.52,.13,.17,.29,.31,.49,.43,.91,.53,1.55,1.43,1.55,2.48v3.46c0,1.39-1.04,2.57-2.42,2.75-1.05,.14-.97,.2-1.73,.2-2.08,0-3.31-.58-4.55-1.47-1.24-.89-1.46-1.99-1.76-3.58l-.15-2c-1.44,2.42-3.35,4.23-5.72,5.42s-4.88,1.78-7.51,1.78-5.14-.5-7.4-1.5c-2.26-1-4.21-2.4-5.87-4.21-1.66-1.81-2.94-3.92-3.83-6.34-.89-2.42-1.34-5.07-1.34-7.95Zm29.81,4.52v-7.76c0-.38-.07-.77-.23-1.12-.57-1.26-1.32-2.37-2.27-3.33-1.08-1.1-2.3-1.99-3.68-2.67-1.37-.69-2.73-1.03-4.07-1.03-1.58,0-3.01,.33-4.29,.99-1.28,.66-2.38,1.51-3.28,2.55-.91,1.04-1.6,2.25-2.1,3.62-.5,1.37-.74,2.85-.74,4.44s.28,3.04,.83,4.36,1.31,2.47,2.28,3.46,2.13,1.77,3.5,2.34c1.37,.58,2.84,.86,4.42,.86,.99,0,1.95-.14,2.89-.41s1.82-.68,2.67-1.23c.84-.55,1.62-1.18,2.32-1.89,.54-.55,1.01-1.16,1.41-1.84,.24-.4,.34-.87,.34-1.33Z"/><g><path class="cls-1" d="M175.39,18.59c-.86,.78-1.77,1.67-2.78,2.68-1.47,1.44-2.95,3.05-4.42,4.79-.63,.72-1.25,1.47-1.91,2.29,0,.01,0,.03,0,.04,0,2.27-.43,4.25-1.28,5.93-.85,1.69-2.03,3.01-3.53,3.98-1.5,.97-3.19,1.45-5.07,1.45s-3.63-.48-5.11-1.45c-1.48-.97-2.65-2.31-3.53-4.03-.88-1.71-1.32-3.68-1.32-5.89s.45-4.26,1.36-5.98c.91-1.71,2.1-3.06,3.58-4.02,1.48-.97,3.15-1.45,5.03-1.45s3.56,.5,5.07,1.49c.83,.55,1.55,1.21,2.18,1.97,1.3-1.4,2.74-2.81,4.37-4.3,1.17-1.09,2.21-2.02,3.22-2.87-1.65-1.5-3.57-2.72-5.8-3.63-2.63-1.08-5.65-1.61-9.04-1.61s-6.42,.54-9.08,1.61c-2.66,1.08-4.89,2.56-6.69,4.46-1.8,1.9-3.18,4.08-4.14,6.53-.96,2.45-1.44,5.05-1.44,7.8s.47,5.28,1.41,7.73c.94,2.45,2.33,4.64,4.18,6.56,1.85,1.93,4.08,3.43,6.69,4.5,2.61,1.07,5.64,1.61,9.08,1.61s6.41-.54,9.04-1.61c2.63-1.08,4.88-2.58,6.73-4.5,1.85-1.92,3.24-4.11,4.18-6.56,.94-2.45,1.41-5.03,1.41-7.73s-.48-5.35-1.44-7.8c-.27-.69-.58-1.35-.92-2Z"/><path class="cls-2" d="M167.05,25.08c1.43-1.69,2.93-3.32,4.5-4.87,1.53-1.55,3.19-3.13,4.82-4.46l.04-.04c.77-.65,.93-1.82,.38-2.64-.35-.52-.88-.79-1.43-.79-.36,0-.73,.12-1.06,.38-1.88,1.47-3.57,2.97-5.26,4.54-1.73,1.57-3.39,3.19-4.94,4.91h0c-1.59,1.71-3.1,3.48-4.54,5.29-.72,.91-1.44,1.86-2.13,2.81l-4.36-7.13c-.34-.54-.9-.84-1.48-.84-.29,0-.59,.07-.87,.23-.88,.51-1.19,1.67-.73,2.6l5.32,10.67c.13,.27,.34,.54,.6,.74,.33,.29,.71,.45,1.1,.49,.07,0,.13,0,.2,0,.69,0,1.44-.34,1.83-.96,.42-.64,2.52-3.96,3.87-5.74,1.32-1.78,2.67-3.52,4.14-5.2Z"/></g><path class="cls-1" d="M47.52,9.67h4.61c1.77,0,2.97,1.97,2.29,3.75l-12.37,32.24c-.39,1.01-1.29,1.66-2.29,1.66h-5.48c-1.04,0-1.96-.7-2.33-1.76l-4.66-13.59-4.65,13.59c-.36,1.06-1.29,1.76-2.33,1.76h-5.48c-1,0-1.9-.66-2.29-1.66L.19,13.42c-.68-1.78,.52-3.75,2.29-3.75H7.1c1.03,0,1.95,.69,2.32,1.74l8.29,23.68c.17,.47,.78,.46,.93-.02l2.82-8.93c.04-.13,.04-.26-.01-.39l-4.74-12.34c-.69-1.78,.52-3.75,2.29-3.75h3.18c1.08,0,2.04,.76,2.36,1.88l2.78,9.45,2.72-9.43c.32-1.13,1.28-1.9,2.37-1.9h3.23c1.77,0,2.97,1.97,2.29,3.75l-4.74,12.34c-.05,.12-.05,.26-.01,.39l2.82,8.93c.15,.48,.77,.49,.93,.02l8.29-23.68c.37-1.05,1.29-1.74,2.32-1.74Z"/><path class="cls-1" d="M72.34,48.08c-3.28,0-6.19-.52-8.74-1.56-2.54-1.04-4.71-2.46-6.5-4.25-1.79-1.79-3.14-3.86-4.07-6.21-.93-2.35-1.4-4.8-1.4-7.37,0-3.67,.82-7.01,2.46-10.02,1.64-3.01,4-5.44,7.08-7.27s6.8-2.75,11.16-2.75c2.99,0,6.14,.91,9.23,2.72,3.08,1.81,5.42,4.22,7.01,7.21,1.59,3,2.39,6.21,2.39,9.64,0,.68-.04,1.34-.11,1.99v.02c-.11,.96-.92,1.68-1.89,1.68h-24.24c-.32,0-.59,.28-.55,.61,.16,1.4,.61,2.6,1.34,3.6,.83,1.14,1.88,2,3.16,2.57,1.27,.57,2.59,.86,3.96,.86,1.81,0,3.49-.42,5.03-1.25,1.1-.59,1.95-1.33,2.54-2.19,.45-.66,1.3-.9,2.06-.68l6.11,1.75c1.26,.36,1.82,1.87,1.05,2.94s-1.7,2.09-2.77,3c-1.76,1.49-3.85,2.69-6.28,3.6s-5.1,1.36-8.04,1.36Zm-7.82-23.34h15.42c.33,0,.6-.29,.55-.62-.2-1.3-.64-2.45-1.32-3.44-.78-1.16-1.76-2.05-2.94-2.69-1.17-.64-2.54-.96-4.11-.96-1.42,0-2.74,.32-3.96,.96-1.22,.64-2.2,1.52-2.94,2.65-.64,.98-1.05,2.14-1.25,3.48-.05,.33,.22,.62,.55,.62Z"/></g></g></svg>